PathFileType	4	(X/Y/Z)	c:/Users/goper/Files/vsCode/490R/osim_files/C04/C04_SSWS_02.trc
DataRate	CameraRate	NumFrames	NumMarkers	Units                	OrigDataRate	OrigDataStartFrame	OrigNumFrames
250.00	250.00	8	36	mm	250.0	1634	3266
                Frame#	Time	LPSIS			LASIS			LTH1			LTH2			LTH3			LTH4			LLFE			LMFE			LSH1			LSH2			LSH3			LSH4			LLMAL			LMMAL			LCAL			LMTP5			LTOE			LMTP1			RPSIS			RASIS			RTH1			RTH2			RTH3			RTH4			RLFE			RMFE			RSH1			RSH2			RSH3			RSH4			RLMAL			RMMAL			RCAL			RMTP1			RTOE			RMTP5		
		X1	Y1	Z1	X2	Y2	Z2	X3	Y3	Z3	X4	Y4	Z4	X5	Y5	Z5	X6	Y6	Z6	X7	Y7	Z7	X8	Y8	Z8	X9	Y9	Z9	X10	Y10	Z10	X11	Y11	Z11	X12	Y12	Z12	X13	Y13	Z13	X14	Y14	Z14	X15	Y15	Z15	X16	Y16	Z16	X17	Y17	Z17	X18	Y18	Z18	X19	Y19	Z19	X20	Y20	Z20	X21	Y21	Z21	X22	Y22	Z22	X23	Y23	Z23	X24	Y24	Z24	X25	Y25	Z25	X26	Y26	Z26	X27	Y27	Z27	X28	Y28	Z28	X29	Y29	Z29	X30	Y30	Z30	X31	Y31	Z31	X32	Y32	Z32	X33	Y33	Z33	X34	Y34	Z34	X35	Y35	Z35	X36	Y36	Z36

1634	6.53200	-344.16031	968.24677	284.59131	-514.68463	958.23187	361.29816	-432.20041	706.22260	425.38553	-446.03717	647.30316	409.12225	-493.77014	726.99811	423.68893	-516.62848	670.75464	406.87799	-512.91479	453.79953	365.12018	0.00000	0.00000	0.00000	-462.24304	351.36349	378.03741	-450.54599	304.66666	374.19482	-514.32526	344.79138	368.96457	-510.21906	298.08920	364.74866	-453.72952	73.11254	343.09708	-449.12564	92.55647	250.94447	-382.44232	47.38451	300.31555	-588.22632	22.24893	337.57272	-605.14868	48.95482	282.29318	-569.50153	21.04499	233.32025	-344.71783	965.50311	209.15680	-515.86182	938.46295	146.07375	-431.47830	700.27979	80.29623	-446.30524	640.48376	91.83660	-493.06921	721.11584	78.34514	-519.84686	662.33960	95.41902	-539.26733	445.22977	119.55544	0.00000	0.00000	0.00000	-410.24237	404.16516	111.31886	-378.23730	371.91855	116.81013	0.00000	0.00000	0.00000	-410.76822	329.61627	113.47349	-215.72600	231.23285	143.78532	-240.96452	227.67514	231.70457	-162.30690	263.59357	199.43489	-263.01471	92.27809	225.55832	-290.05121	78.26910	178.37587	-239.54559	88.57641	123.83358
1635	6.53600	-348.10687	968.59320	284.56229	-518.48077	958.50647	361.49985	-435.55692	706.48535	425.34058	-449.15491	647.48724	408.98163	-497.11874	726.92004	423.49051	-519.83734	670.61224	406.53604	-514.50317	453.54492	364.79971	-499.73734	446.34079	250.67989	-463.26657	351.31696	377.79099	-451.43872	304.60162	373.98474	-515.18372	344.61017	368.76456	-511.12439	297.82138	364.45715	-453.81885	73.12044	342.99280	-449.17151	92.50347	250.74763	-382.46307	47.50878	300.25250	-588.25488	22.16076	337.57727	-605.20599	48.85307	282.28415	-569.53076	21.05001	233.34630	-348.65298	965.88263	209.16728	-519.51880	939.03271	146.27330	-436.54977	700.61060	80.20181	-451.78818	640.95410	91.53890	-498.41257	721.75629	79.10537	-524.87646	663.85144	94.42292	-547.09839	446.83270	119.13558	-553.46252	442.56476	234.53482	-418.42969	404.88263	111.66882	-386.70288	372.30765	117.09151	0.00000	0.00000	0.00000	-419.61560	330.27982	113.33725	-225.95287	229.68332	144.07239	-251.52844	226.09035	231.85625	-172.13493	260.80725	199.94919	-275.92294	91.21144	225.01143	-303.02786	77.78284	177.84972	-252.20522	87.56359	123.36370
1636	6.54000	-352.09048	968.95361	284.59549	-522.55347	958.69562	361.14719	-438.88040	706.70044	425.27271	-452.17090	647.70154	408.83188	-500.58218	726.95227	423.21652	-522.80682	670.56860	406.27530	-515.90717	453.40897	364.57458	0.00000	0.00000	0.00000	-464.16995	351.27814	377.64975	-452.16611	304.64035	373.83124	-516.13153	344.42422	368.58340	-511.94595	297.66977	364.27051	-453.93222	73.13651	342.94693	-449.92310	92.34158	249.70703	-382.49951	47.64882	300.19064	-588.28223	22.05144	337.57510	-605.25299	48.73999	282.29501	-569.55261	21.03305	233.34247	-352.50754	966.28326	209.18869	-523.53516	939.53174	146.33966	-441.39056	701.02411	79.93532	-457.24789	641.47528	91.28617	-503.98007	722.27917	80.60258	-529.87097	665.33514	93.43793	-555.08643	448.35196	118.69948	-561.74316	444.08142	234.10890	-426.52487	405.51965	112.03682	-395.16879	372.62006	117.31640	0.00000	0.00000	0.00000	-428.53839	330.85059	113.18535	-236.35434	227.85611	144.21260	-262.00833	224.47089	232.03970	-182.07561	257.82043	200.41878	-289.05765	90.02893	224.52620	0.00000	0.00000	0.00000	-265.08289	86.43826	122.95329
1637	6.54400	-356.00055	969.30487	284.62323	-526.37433	958.90826	361.27972	-442.19275	706.97540	425.21448	-455.07019	647.95392	408.63367	-504.23956	726.84918	422.82291	-525.94751	670.47351	405.86887	-517.37921	453.29657	364.31384	-502.03210	445.95282	250.15822	-465.05923	351.26794	377.46198	-452.94043	304.67731	373.63083	-517.00183	344.29514	368.45520	-512.50507	297.66422	364.20819	-454.01529	73.17323	342.84357	-448.76767	92.58018	251.16104	-382.55786	47.76564	300.15851	-588.28992	21.98343	337.56989	-605.30420	48.64615	282.30508	-569.56348	21.00671	233.34460	-356.41467	966.63489	209.21605	-527.37549	939.95331	146.07506	-446.19272	701.46844	79.65746	-462.63348	642.01190	90.99964	-509.56308	722.77026	82.23449	-534.83990	666.77460	92.48088	-562.91992	449.89133	118.37668	-569.96960	445.58383	233.65175	-434.51761	406.08737	112.31004	-403.53055	372.77689	117.55881	0.00000	0.00000	0.00000	-437.35980	331.46786	112.94125	-246.74379	225.97490	144.38551	-272.73843	222.71379	232.07051	-192.07420	254.68629	200.74777	-302.33749	88.80277	223.97353	0.00000	0.00000	0.00000	-278.23697	85.08451	122.47919
1638	6.54800	-360.01785	969.63214	284.68332	-530.38916	959.00830	361.31421	-445.41122	707.16907	425.17599	-458.11197	648.05151	408.42474	0.00000	0.00000	0.00000	-529.11743	670.28326	405.48749	-519.02460	453.15848	364.07947	-503.40823	445.78253	249.96788	-466.00739	351.23785	377.32428	-453.73486	304.66409	373.48917	-517.89197	344.17270	368.37622	-513.38403	297.44305	364.01685	-454.23730	73.13863	342.75842	-449.41470	92.21415	250.22270	-382.44153	47.87991	300.18011	-588.38953	21.88778	337.54526	-605.39923	48.54344	282.34113	-569.57666	21.00095	233.35106	-360.33026	967.00751	209.27455	-531.29077	940.55957	146.48434	-452.19794	702.30389	80.21026	-468.03705	642.60339	90.62055	-514.39240	723.59863	81.88213	-539.79279	668.15381	91.56868	-570.99030	451.51276	117.44423	-578.13568	447.16547	233.29852	-442.50418	406.51740	112.64259	-412.00787	372.81659	117.78568	0.00000	0.00000	0.00000	-446.13989	332.02936	112.68079	-257.38892	223.83606	144.45920	-283.65668	220.73909	232.13431	-202.26436	251.27472	201.11369	-315.66949	87.52367	223.42912	-343.29166	76.43409	175.63193	-291.53983	83.71273	121.94949
1639	6.55200	-363.92981	969.95410	284.73132	-534.33185	959.15143	361.62241	-448.70905	707.36511	425.07782	-461.15466	648.16650	408.24170	0.00000	0.00000	0.00000	-532.17389	670.32977	405.17029	-520.50781	453.08368	363.87808	-504.54169	445.77795	249.65883	-466.91281	351.22037	377.18607	-454.50784	304.71344	373.37103	-518.86804	344.00815	368.28110	-514.19489	297.28610	363.82623	-454.40143	73.12379	342.70984	-449.48550	92.26202	250.14975	-381.94638	47.61926	300.41275	-588.47742	21.79097	337.54929	-605.51270	48.40387	282.39517	-569.60321	21.01088	233.36884	-364.17123	967.41168	209.30141	-535.17993	941.12079	146.24736	-457.01834	702.84613	79.96804	-473.34604	643.30060	90.32194	-519.03119	724.64349	81.45463	-544.73932	669.45667	90.71817	-578.33344	453.17975	117.36301	-586.17999	448.76392	232.86351	-450.42719	406.88669	112.88586	-420.43961	372.79788	118.01454	0.00000	0.00000	0.00000	-455.04257	332.38635	112.55455	-268.05060	221.56238	144.48141	-294.64471	218.62712	232.10684	-212.52289	247.70364	201.35620	-329.42126	86.05561	222.83163	-356.88934	75.82024	175.04671	-304.93634	82.28332	121.47368
1640	6.55600	-367.81384	970.24933	284.78918	-538.35089	959.27405	361.43057	-451.94077	707.53839	424.95581	-464.07584	648.33691	408.10043	0.00000	0.00000	0.00000	0.00000	0.00000	0.00000	-522.00079	452.90848	363.65216	-506.19461	445.54593	249.52643	-467.83499	351.26678	377.06500	-455.25156	304.80429	373.27164	-519.25311	343.76813	367.84140	-514.66254	297.38913	363.96060	-454.56570	73.10467	342.68805	-449.57617	92.27942	250.03775	-382.74722	48.08789	300.05966	-588.56299	21.66866	337.57822	-605.60651	48.31878	282.43243	-569.60712	21.03076	233.36320	-367.97675	967.79602	209.41000	-539.03076	941.45111	146.18781	-461.81805	703.19116	79.74947	-478.60303	643.88000	90.06348	-523.67664	725.58301	81.16182	-549.72137	670.67126	89.97283	-585.91730	454.75937	117.16444	-594.02637	450.41211	232.43761	-458.39618	407.12589	113.07238	-428.85477	372.66379	118.17298	0.00000	0.00000	0.00000	-463.98495	332.65094	112.36497	-278.79080	219.15315	144.51474	-305.73322	216.34010	232.08745	-222.92482	243.89195	201.58846	-342.95834	84.65634	222.29103	-370.73126	75.10982	174.52901	-318.61429	80.73911	120.83877
1641	6.56000	-371.69040	970.50128	284.89532	-542.11041	959.34003	361.49527	-455.21506	707.65771	424.80096	-466.85815	648.18066	407.89850	0.00000	0.00000	0.00000	-537.89783	670.12268	404.54352	-523.52649	452.79523	363.49899	-507.44153	445.56622	249.36295	-468.70255	351.26245	377.01895	-455.95834	304.90405	373.21222	-520.13690	343.63306	367.74423	-515.52942	297.05249	363.70953	-454.67386	73.11079	342.66422	-449.63016	92.27019	249.99695	-382.82919	48.18910	300.04459	-588.58020	21.57152	337.62411	-605.64673	48.20652	282.48340	-569.63855	20.98638	233.38493	-371.79004	968.15759	209.49129	-542.71808	941.90881	146.31084	-466.58899	703.67651	79.49254	-483.81271	644.51715	89.70741	-528.32025	726.50958	80.68066	-554.84729	671.81061	89.43243	-593.17474	456.33401	116.97248	-601.83301	452.01715	231.97871	-466.17575	407.33594	113.30306	-437.16681	372.48297	118.35638	0.00000	0.00000	0.00000	-472.73492	332.69476	112.63692	-289.71625	216.50806	144.52570	-316.76575	214.02484	232.03375	-233.38499	239.93817	201.84712	-357.01663	83.14084	221.57433	-384.64658	74.35048	173.79463	-332.27112	79.08298	120.22883
